<svg xmlns="http://www.w3.org/2000/svg" xmlns:xlink="http://www.w3.org/1999/xlink" width="500" zoomAndPan="magnify" viewBox="0 0 375 374.999991" height="500" preserveAspectRatio="xMidYMid meet" version="1.0"><defs><g/><clipPath id="5a3afca7c5"><path d="M 127 74 L 275.472656 74 L 275.472656 193 L 127 193 Z M 127 74 " clip-rule="nonzero"/></clipPath><clipPath id="50a57cbd8e"><path d="M 213 65.90625 L 237 65.90625 L 237 152 L 213 152 Z M 213 65.90625 " clip-rule="nonzero"/></clipPath><clipPath id="c541d48ee6"><path d="M 99.222656 84 L 249 84 L 249 233 L 99.222656 233 Z M 99.222656 84 " clip-rule="nonzero"/></clipPath></defs><g clip-path="url(#5a3afca7c5)"><path fill="#74cc00" d="M 275.777344 103.457031 L 270.167969 101.792969 C 268.242188 107.027344 266.070312 112.1875 263.621094 117.222656 C 260.527344 123.589844 256.992188 129.757812 252.980469 135.613281 C 250.976562 138.539062 248.859375 141.386719 246.625 144.144531 C 244.386719 146.898438 242.039062 149.554688 239.578125 152.109375 C 238.46875 153.261719 237.335938 154.394531 236.179688 155.5 C 232.230469 159.285156 228.046875 162.785156 223.621094 166 C 220.410156 168.339844 217.097656 170.511719 213.683594 172.515625 C 211.0625 174.0625 208.394531 175.507812 205.679688 176.855469 C 204.582031 177.402344 203.480469 177.933594 202.371094 178.445312 C 197.195312 180.835938 191.890625 182.910156 186.464844 184.664062 C 184.28125 185.371094 182.085938 186.027344 179.878906 186.636719 C 178.777344 186.941406 177.675781 187.234375 176.574219 187.515625 C 173.914062 188.1875 171.242188 188.796875 168.566406 189.339844 C 167.898438 189.472656 167.234375 189.605469 166.570312 189.730469 C 159.875 191.015625 153.136719 191.914062 146.398438 192.507812 L 146.128906 192.53125 L 146.070312 192.53125 C 145.375 192.503906 144.679688 192.457031 143.984375 192.394531 C 143.289062 192.332031 142.59375 192.242188 141.894531 192.128906 C 140.480469 191.910156 139.09375 191.578125 137.734375 191.128906 C 136.367188 190.667969 135.015625 190.066406 133.75 189.277344 C 133.113281 188.882812 132.507812 188.441406 131.933594 187.957031 C 131.355469 187.464844 130.820312 186.929688 130.328125 186.351562 C 129.339844 185.1875 128.582031 183.886719 128.054688 182.457031 C 127.796875 181.757812 127.59375 181.046875 127.453125 180.316406 C 127.3125 179.601562 127.222656 178.878906 127.1875 178.148438 C 127.152344 177.433594 127.160156 176.722656 127.21875 176.007812 C 127.269531 175.304688 127.363281 174.609375 127.496094 173.914062 C 127.753906 172.554688 128.132812 171.230469 128.632812 169.9375 C 129.617188 167.382812 130.96875 165.03125 132.542969 162.875 C 134.125 160.726562 135.90625 158.765625 137.894531 156.992188 C 140.390625 154.753906 143.117188 152.835938 146.070312 151.242188 C 147.742188 150.335938 149.46875 149.546875 151.246094 148.867188 C 149.453125 149.722656 147.726562 150.699219 146.070312 151.796875 C 143.40625 153.550781 140.976562 155.589844 138.78125 157.902344 C 137.023438 159.753906 135.472656 161.765625 134.128906 163.9375 C 132.808594 166.09375 131.738281 168.386719 131.046875 170.753906 C 130.699219 171.925781 130.460938 173.121094 130.328125 174.332031 C 130.265625 174.925781 130.234375 175.523438 130.242188 176.121094 C 130.242188 176.707031 130.28125 177.289062 130.359375 177.871094 C 130.433594 178.4375 130.546875 178.996094 130.703125 179.546875 C 130.859375 180.085938 131.054688 180.609375 131.292969 181.117188 C 131.757812 182.113281 132.378906 183 133.160156 183.777344 C 133.542969 184.160156 133.960938 184.511719 134.402344 184.828125 C 134.851562 185.148438 135.324219 185.433594 135.8125 185.6875 C 136.800781 186.195312 137.878906 186.574219 138.996094 186.851562 C 140.140625 187.125 141.296875 187.304688 142.46875 187.386719 C 143.0625 187.433594 143.65625 187.457031 144.257812 187.464844 C 144.773438 187.46875 145.289062 187.460938 145.808594 187.445312 L 146.070312 187.398438 C 152.46875 186.265625 158.796875 184.851562 165.007812 183.101562 C 166.195312 182.765625 167.382812 182.414062 168.5625 182.054688 C 170.515625 181.457031 172.453125 180.828125 174.375 180.160156 C 176.222656 179.519531 178.058594 178.84375 179.875 178.132812 C 181.089844 177.65625 182.292969 177.167969 183.496094 176.660156 C 189.476562 174.140625 195.257812 171.214844 200.742188 167.875 C 201.289062 167.539062 201.832031 167.203125 202.371094 166.863281 C 206.308594 164.378906 210.078125 161.667969 213.683594 158.726562 C 214.53125 158.035156 215.367188 157.332031 216.191406 156.613281 C 220.972656 152.464844 225.359375 147.929688 229.34375 143.011719 C 231.324219 140.566406 233.199219 138.042969 234.960938 135.4375 C 235.375 134.832031 235.78125 134.21875 236.179688 133.601562 C 237.492188 131.582031 238.738281 129.527344 239.917969 127.429688 C 243.007812 121.957031 245.664062 116.242188 247.921875 110.359375 C 249.65625 105.839844 251.164062 101.230469 252.453125 96.535156 L 246.9375 94.902344 L 268.761719 74.207031 Z M 275.777344 103.457031 " fill-opacity="1" fill-rule="nonzero"/></g><g clip-path="url(#50a57cbd8e)"><path fill="#135192" d="M 236.179688 65.9375 L 236.179688 123.289062 C 235.898438 123.808594 235.613281 124.324219 235.324219 124.835938 C 233.839844 127.464844 232.246094 130.035156 230.59375 132.476562 C 228.910156 134.960938 227.109375 137.386719 225.242188 139.691406 C 221.71875 144.039062 217.867188 148.070312 213.6875 151.789062 L 213.6875 82.152344 Z M 236.179688 65.9375 " fill-opacity="1" fill-rule="nonzero"/></g><path fill="#74cc00" d="M 226.726562 170.273438 C 229.988281 167.902344 233.152344 165.355469 236.179688 162.675781 L 236.179688 213.9375 C 229.300781 218.914062 221.800781 222.644531 213.683594 225.128906 L 213.683594 178.605469 C 214.585938 178.101562 215.480469 177.589844 216.363281 177.070312 C 219.941406 174.960938 223.429688 172.675781 226.726562 170.273438 Z M 226.726562 170.273438 " fill-opacity="1" fill-rule="nonzero"/><path fill="#135192" d="M 202.371094 90.308594 L 202.371094 160.558594 C 200.941406 161.523438 199.480469 162.457031 197.992188 163.367188 C 192.871094 166.488281 187.300781 169.324219 181.441406 171.796875 C 180.925781 172.015625 180.402344 172.234375 179.875 172.449219 L 179.875 106.527344 Z M 202.371094 90.308594 " fill-opacity="1" fill-rule="nonzero"/><path fill="#74cc00" d="M 188.09375 189.683594 C 192.945312 188.113281 197.703125 186.300781 202.371094 184.242188 L 202.371094 227.671875 C 194.875 228.765625 187.375 228.765625 179.878906 227.671875 L 179.878906 192.109375 C 180.351562 191.984375 180.820312 191.855469 181.285156 191.726562 C 183.578125 191.09375 185.867188 190.40625 188.09375 189.683594 Z M 188.09375 189.683594 " fill-opacity="1" fill-rule="nonzero"/><path fill="#135192" d="M 168.566406 114.683594 L 168.566406 176.527344 C 166.921875 177.046875 165.253906 177.546875 163.574219 178.019531 C 158.050781 179.578125 152.167969 180.925781 146.070312 182.035156 L 146.070312 130.902344 Z M 168.566406 114.683594 " fill-opacity="1" fill-rule="nonzero"/><path fill="#74cc00" d="M 167.5625 194.917969 C 167.902344 194.851562 168.238281 194.789062 168.566406 194.722656 L 168.566406 225.128906 C 160.449219 222.644531 152.949219 218.914062 146.070312 213.9375 L 146.070312 197.8125 L 146.261719 197.820312 L 146.863281 197.765625 C 154.019531 197.136719 160.984375 196.179688 167.5625 194.917969 Z M 167.5625 194.917969 " fill-opacity="1" fill-rule="nonzero"/><g clip-path="url(#c541d48ee6)"><path fill="#135192" d="M 248.503906 203.574219 C 246.761719 205.761719 244.894531 207.835938 242.902344 209.800781 C 240.898438 211.78125 238.792969 213.644531 236.585938 215.394531 C 232.105469 218.933594 227.296875 221.953125 222.164062 224.457031 C 211.878906 229.480469 200.410156 232.335938 188.777344 232.753906 C 184.371094 232.910156 179.976562 232.726562 175.601562 232.203125 C 171.222656 231.679688 166.910156 230.824219 162.664062 229.632812 C 158.421875 228.441406 154.292969 226.933594 150.28125 225.105469 C 146.269531 223.277344 142.421875 221.148438 138.738281 218.726562 C 133.796875 215.472656 129.234375 211.753906 125.050781 207.570312 C 120.867188 203.390625 117.148438 198.828125 113.890625 193.886719 C 111.464844 190.207031 109.335938 186.359375 107.507812 182.347656 C 105.675781 178.335938 104.164062 174.203125 102.972656 169.957031 C 101.78125 165.714844 100.925781 161.402344 100.402344 157.023438 C 99.878906 152.644531 99.695312 148.25 99.851562 143.84375 C 100.269531 132.203125 103.125 120.730469 108.152344 110.449219 C 110.652344 105.316406 113.675781 100.507812 117.21875 96.03125 C 118.96875 93.820312 120.832031 91.714844 122.816406 89.714844 L 123.5625 88.972656 C 123.816406 88.730469 124.054688 88.480469 124.316406 88.242188 L 125.082031 87.527344 L 125.464844 87.167969 C 125.59375 87.050781 125.722656 86.933594 125.855469 86.816406 C 126.378906 86.355469 126.902344 85.894531 127.429688 85.441406 C 127.96875 85 128.503906 84.554688 129.046875 84.117188 C 128.625 84.671875 128.195312 85.214844 127.769531 85.761719 L 126.523438 87.421875 C 126.417969 87.558594 126.316406 87.699219 126.21875 87.839844 L 125.914062 88.261719 L 125.3125 89.101562 L 125.015625 89.523438 L 124.722656 89.949219 L 124.140625 90.800781 C 122.601562 93.078125 121.171875 95.40625 119.847656 97.789062 C 117.214844 102.519531 115.027344 107.445312 113.292969 112.570312 C 109.847656 122.714844 108.339844 133.136719 108.761719 143.839844 C 108.972656 149.074219 109.664062 154.246094 110.828125 159.351562 C 111.988281 164.425781 113.605469 169.347656 115.683594 174.117188 C 117.757812 178.871094 120.253906 183.386719 123.175781 187.664062 C 129.066406 196.289062 136.324219 203.550781 144.949219 209.445312 C 149.226562 212.371094 153.742188 214.871094 158.492188 216.941406 C 167.980469 221.085938 178.292969 223.449219 188.777344 223.871094 C 199.480469 224.292969 209.90625 222.785156 220.050781 219.339844 C 225.175781 217.601562 230.101562 215.414062 234.832031 212.777344 C 237.210938 211.457031 239.539062 210.027344 241.820312 208.484375 L 242.667969 207.898438 L 243.09375 207.605469 L 243.308594 207.460938 L 243.519531 207.308594 L 244.355469 206.703125 L 244.777344 206.402344 C 244.917969 206.300781 245.058594 206.203125 245.195312 206.097656 L 246.855469 204.851562 C 247.40625 204.425781 247.949219 203.996094 248.503906 203.574219 Z M 248.503906 203.574219 " fill-opacity="1" fill-rule="nonzero"/></g><g fill="#135192" fill-opacity="1"><g transform="translate(40.704494, 280.389224)"><g><path d="M 8.25 -5.890625 L 17.3125 -5.890625 C 17.507812 -5.890625 17.675781 -5.816406 17.8125 -5.671875 C 17.945312 -5.535156 18.015625 -5.328125 18.015625 -5.046875 L 18.015625 -0.859375 C 18.015625 -0.566406 17.945312 -0.347656 17.8125 -0.203125 C 17.675781 -0.0664062 17.507812 0 17.3125 0 L 2.59375 0 C 2.039062 0 1.765625 -0.304688 1.765625 -0.921875 L 1.765625 -32.84375 C 1.765625 -33.476562 2.039062 -33.796875 2.59375 -33.796875 L 17.1875 -33.796875 C 17.644531 -33.796875 17.875 -33.492188 17.875 -32.890625 L 17.875 -28.734375 C 17.875 -28.148438 17.644531 -27.859375 17.1875 -27.859375 L 8.25 -27.859375 L 8.25 -20.015625 L 15.375 -20.015625 C 15.59375 -20.015625 15.773438 -19.945312 15.921875 -19.8125 C 16.078125 -19.6875 16.15625 -19.472656 16.15625 -19.171875 L 16.15625 -14.984375 C 16.15625 -14.691406 16.082031 -14.476562 15.9375 -14.34375 C 15.789062 -14.21875 15.601562 -14.15625 15.375 -14.15625 L 8.25 -14.15625 Z M 8.25 -5.890625 "/></g></g></g><g fill="#135192" fill-opacity="1"><g transform="translate(59.280692, 280.389224)"><g><path d="M 11.546875 -7.25 L 11.546875 -10.96875 L 10.40625 -10.96875 C 9.519531 -10.96875 8.828125 -10.828125 8.328125 -10.546875 C 7.835938 -10.265625 7.492188 -9.894531 7.296875 -9.4375 C 7.097656 -8.988281 7 -8.492188 7 -7.953125 L 7 -7.59375 C 7 -6.976562 7.117188 -6.472656 7.359375 -6.078125 C 7.609375 -5.691406 7.914062 -5.40625 8.28125 -5.21875 C 8.65625 -5.039062 9.019531 -4.953125 9.375 -4.953125 C 9.894531 -4.953125 10.382812 -5.132812 10.84375 -5.5 C 11.3125 -5.875 11.546875 -6.457031 11.546875 -7.25 Z M 8.671875 -15.375 L 11.546875 -15.359375 L 11.546875 -17.09375 C 11.546875 -17.59375 11.4375 -18.097656 11.21875 -18.609375 C 11.007812 -19.128906 10.679688 -19.5625 10.234375 -19.90625 C 9.796875 -20.257812 9.207031 -20.4375 8.46875 -20.4375 C 7.476562 -20.4375 6.640625 -20.300781 5.953125 -20.03125 C 5.273438 -19.757812 4.707031 -19.460938 4.25 -19.140625 C 4.132812 -19.078125 4.015625 -19.015625 3.890625 -18.953125 C 3.773438 -18.898438 3.660156 -18.875 3.546875 -18.875 C 3.347656 -18.875 3.191406 -18.976562 3.078125 -19.1875 L 1.859375 -21.90625 C 1.742188 -22.125 1.695312 -22.351562 1.71875 -22.59375 C 1.75 -22.84375 1.96875 -23.09375 2.375 -23.34375 C 2.96875 -23.71875 3.59375 -24.0625 4.25 -24.375 C 4.914062 -24.695312 5.664062 -24.957031 6.5 -25.15625 C 7.34375 -25.363281 8.332031 -25.46875 9.46875 -25.46875 C 10.476562 -25.46875 11.472656 -25.300781 12.453125 -24.96875 C 13.429688 -24.632812 14.3125 -24.132812 15.09375 -23.46875 C 15.882812 -22.8125 16.515625 -22 16.984375 -21.03125 C 17.460938 -20.0625 17.703125 -18.941406 17.703125 -17.671875 L 17.703125 -7.03125 C 17.703125 -5.8125 17.5 -4.769531 17.09375 -3.90625 C 16.6875 -3.039062 16.15625 -2.320312 15.5 -1.75 C 14.851562 -1.1875 14.148438 -0.738281 13.390625 -0.40625 C 12.628906 -0.0820312 11.882812 0.140625 11.15625 0.265625 C 10.4375 0.398438 9.816406 0.46875 9.296875 0.46875 C 8.335938 0.46875 7.363281 0.316406 6.375 0.015625 C 5.382812 -0.285156 4.46875 -0.753906 3.625 -1.390625 C 2.789062 -2.023438 2.113281 -2.847656 1.59375 -3.859375 C 1.082031 -4.867188 0.828125 -6.082031 0.828125 -7.5 L 0.828125 -8.03125 C 0.828125 -9.332031 1.035156 -10.445312 1.453125 -11.375 C 1.878906 -12.300781 2.457031 -13.0625 3.1875 -13.65625 C 3.925781 -14.25 4.765625 -14.679688 5.703125 -14.953125 C 6.648438 -15.234375 7.640625 -15.375 8.671875 -15.375 Z M 8.671875 -15.375 "/></g></g></g><g fill="#135192" fill-opacity="1"><g transform="translate(78.027761, 280.389224)"><g><path d="M 11.296875 -14.546875 C 13.046875 -13.640625 14.460938 -12.539062 15.546875 -11.25 C 16.640625 -9.96875 17.1875 -8.503906 17.1875 -6.859375 C 17.1875 -5.441406 16.84375 -4.179688 16.15625 -3.078125 C 15.476562 -1.972656 14.523438 -1.101562 13.296875 -0.46875 C 12.078125 0.15625 10.648438 0.46875 9.015625 0.46875 C 7.335938 0.46875 5.953125 0.265625 4.859375 -0.140625 C 3.765625 -0.546875 2.914062 -1.101562 2.3125 -1.8125 C 1.71875 -2.519531 1.296875 -3.316406 1.046875 -4.203125 C 0.804688 -5.097656 0.6875 -6.015625 0.6875 -6.953125 L 0.6875 -7.296875 C 0.6875 -7.773438 1.082031 -8.015625 1.875 -8.015625 L 5.890625 -8.015625 C 6.304688 -8.015625 6.515625 -7.757812 6.515625 -7.25 L 6.515625 -6.78125 C 6.515625 -6.1875 6.738281 -5.710938 7.1875 -5.359375 C 7.632812 -5.003906 8.160156 -4.828125 8.765625 -4.828125 C 9.367188 -4.828125 9.894531 -5.007812 10.34375 -5.375 C 10.789062 -5.75 11.015625 -6.253906 11.015625 -6.890625 C 11.015625 -7.328125 10.84375 -7.71875 10.5 -8.0625 C 10.15625 -8.414062 9.707031 -8.753906 9.15625 -9.078125 C 8.601562 -9.410156 7.992188 -9.75 7.328125 -10.09375 C 6.671875 -10.445312 6.023438 -10.828125 5.390625 -11.234375 C 4.535156 -11.753906 3.769531 -12.34375 3.09375 -13 C 2.414062 -13.65625 1.882812 -14.410156 1.5 -15.265625 C 1.113281 -16.117188 0.921875 -17.09375 0.921875 -18.1875 C 0.921875 -19.570312 1.265625 -20.804688 1.953125 -21.890625 C 2.640625 -22.984375 3.578125 -23.851562 4.765625 -24.5 C 5.960938 -25.144531 7.328125 -25.46875 8.859375 -25.46875 C 10.585938 -25.46875 12.035156 -25.148438 13.203125 -24.515625 C 14.378906 -23.890625 15.265625 -23.023438 15.859375 -21.921875 C 16.460938 -20.816406 16.765625 -19.53125 16.765625 -18.0625 L 16.765625 -17.65625 C 16.765625 -17.394531 16.695312 -17.234375 16.5625 -17.171875 C 16.425781 -17.117188 16.1875 -17.09375 15.84375 -17.09375 L 11.984375 -17.09375 C 11.710938 -17.09375 11.519531 -17.15625 11.40625 -17.28125 C 11.289062 -17.414062 11.234375 -17.597656 11.234375 -17.828125 L 11.234375 -18.171875 C 11.234375 -18.765625 11.03125 -19.25 10.625 -19.625 C 10.226562 -20 9.726562 -20.1875 9.125 -20.1875 C 8.488281 -20.1875 7.984375 -19.976562 7.609375 -19.5625 C 7.242188 -19.15625 7.0625 -18.65625 7.0625 -18.0625 C 7.0625 -17.5625 7.195312 -17.15625 7.46875 -16.84375 C 7.75 -16.53125 8.195312 -16.210938 8.8125 -15.890625 C 9.425781 -15.566406 10.253906 -15.117188 11.296875 -14.546875 Z M 11.296875 -14.546875 "/></g></g></g><g fill="#135192" fill-opacity="1"><g transform="translate(95.896061, 280.389224)"><g><path d="M 11.8125 -9.203125 L 11.8125 -23.921875 C 11.8125 -24.316406 11.929688 -24.59375 12.171875 -24.75 C 12.421875 -24.914062 12.613281 -25 12.75 -25 L 17.265625 -25 C 17.453125 -25 17.617188 -24.925781 17.765625 -24.78125 C 17.921875 -24.644531 18 -24.441406 18 -24.171875 L 18 -0.828125 C 18 0.847656 17.660156 2.316406 16.984375 3.578125 C 16.316406 4.835938 15.332031 5.816406 14.03125 6.515625 C 12.726562 7.210938 11.128906 7.5625 9.234375 7.5625 C 7.734375 7.5625 6.375 7.363281 5.15625 6.96875 C 3.945312 6.582031 2.960938 6.109375 2.203125 5.546875 C 1.972656 5.398438 1.820312 5.207031 1.75 4.96875 C 1.6875 4.726562 1.710938 4.503906 1.828125 4.296875 L 3.171875 1.34375 C 3.316406 1.101562 3.488281 0.984375 3.6875 0.984375 C 3.863281 0.984375 4.054688 1.0625 4.265625 1.21875 C 4.773438 1.582031 5.410156 1.894531 6.171875 2.15625 C 6.941406 2.414062 7.648438 2.546875 8.296875 2.546875 C 8.898438 2.546875 9.46875 2.4375 10 2.21875 C 10.539062 2.007812 10.976562 1.644531 11.3125 1.125 C 11.644531 0.613281 11.8125 -0.0859375 11.8125 -0.984375 L 11.8125 -2.34375 C 11.226562 -2 10.625 -1.734375 10 -1.546875 C 9.382812 -1.359375 8.769531 -1.265625 8.15625 -1.265625 C 6.832031 -1.265625 5.648438 -1.570312 4.609375 -2.1875 C 3.566406 -2.8125 2.75 -3.6875 2.15625 -4.8125 C 1.5625 -5.945312 1.265625 -7.28125 1.265625 -8.8125 L 1.265625 -24.171875 C 1.265625 -24.441406 1.332031 -24.644531 1.46875 -24.78125 C 1.613281 -24.925781 1.789062 -25 2 -25 L 6.734375 -25 C 6.953125 -25 7.125 -24.925781 7.25 -24.78125 C 7.382812 -24.644531 7.453125 -24.441406 7.453125 -24.171875 L 7.453125 -8.859375 C 7.453125 -8.296875 7.648438 -7.789062 8.046875 -7.34375 C 8.441406 -6.90625 8.972656 -6.6875 9.640625 -6.6875 C 10.097656 -6.6875 10.484375 -6.8125 10.796875 -7.0625 C 11.117188 -7.320312 11.367188 -7.644531 11.546875 -8.03125 C 11.722656 -8.425781 11.8125 -8.816406 11.8125 -9.203125 Z M 11.8125 -9.203125 "/></g></g></g><g fill="#135192" fill-opacity="1"><g transform="translate(115.326617, 280.389224)"><g><path d="M 16.28125 -27.859375 L 11.75 -27.859375 L 11.75 -0.859375 C 11.75 -0.578125 11.675781 -0.363281 11.53125 -0.21875 C 11.394531 -0.0703125 11.226562 0 11.03125 0 L 5.9375 0 C 5.71875 0 5.539062 -0.0703125 5.40625 -0.21875 C 5.28125 -0.363281 5.21875 -0.578125 5.21875 -0.859375 L 5.21875 -27.859375 L 0.6875 -27.859375 C 0.46875 -27.859375 0.289062 -27.929688 0.15625 -28.078125 C 0.03125 -28.222656 -0.03125 -28.441406 -0.03125 -28.734375 L -0.03125 -32.890625 C -0.03125 -33.179688 0.03125 -33.40625 0.15625 -33.5625 C 0.289062 -33.71875 0.46875 -33.796875 0.6875 -33.796875 L 16.28125 -33.796875 C 16.5 -33.796875 16.671875 -33.71875 16.796875 -33.5625 C 16.929688 -33.414062 17 -33.195312 17 -32.90625 L 17 -28.734375 C 17 -28.441406 16.929688 -28.222656 16.796875 -28.078125 C 16.671875 -27.929688 16.5 -27.859375 16.28125 -27.859375 Z M 16.28125 -27.859375 "/></g></g></g><g fill="#135192" fill-opacity="1"><g transform="translate(132.267328, 280.389224)"><g><path d="M 17.75 -18.0625 L 17.75 -6.953125 C 17.75 -5.867188 17.53125 -4.867188 17.09375 -3.953125 C 16.664062 -3.046875 16.066406 -2.257812 15.296875 -1.59375 C 14.535156 -0.9375 13.644531 -0.425781 12.625 -0.0625 C 11.613281 0.289062 10.53125 0.46875 9.375 0.46875 C 8.21875 0.46875 7.132812 0.289062 6.125 -0.0625 C 5.113281 -0.425781 4.222656 -0.9375 3.453125 -1.59375 C 2.691406 -2.257812 2.097656 -3.046875 1.671875 -3.953125 C 1.242188 -4.867188 1.03125 -5.867188 1.03125 -6.953125 L 1.03125 -18.0625 C 1.03125 -19.09375 1.242188 -20.054688 1.671875 -20.953125 C 2.097656 -21.847656 2.691406 -22.628906 3.453125 -23.296875 C 4.210938 -23.972656 5.097656 -24.503906 6.109375 -24.890625 C 7.117188 -25.273438 8.191406 -25.46875 9.328125 -25.46875 C 10.492188 -25.46875 11.585938 -25.285156 12.609375 -24.921875 C 13.628906 -24.566406 14.523438 -24.054688 15.296875 -23.390625 C 16.066406 -22.734375 16.664062 -21.953125 17.09375 -21.046875 C 17.53125 -20.148438 17.75 -19.15625 17.75 -18.0625 Z M 9.40625 -20.046875 C 8.738281 -20.046875 8.203125 -19.820312 7.796875 -19.375 C 7.398438 -18.925781 7.203125 -18.429688 7.203125 -17.890625 L 7.203125 -7.125 C 7.203125 -6.570312 7.40625 -6.070312 7.8125 -5.625 C 8.21875 -5.175781 8.75 -4.953125 9.40625 -4.953125 C 10.070312 -4.953125 10.597656 -5.175781 10.984375 -5.625 C 11.378906 -6.070312 11.578125 -6.570312 11.578125 -7.125 L 11.578125 -17.875 C 11.578125 -18.425781 11.378906 -18.925781 10.984375 -19.375 C 10.597656 -19.820312 10.070312 -20.046875 9.40625 -20.046875 Z M 9.40625 -20.046875 "/></g></g></g><g fill="#135192" fill-opacity="1"><g transform="translate(151.038808, 280.389224)"><g><path d="M 18.96875 -25.703125 L 18.96875 -23.34375 C 18.96875 -22.96875 18.914062 -22.691406 18.8125 -22.515625 C 18.71875 -22.347656 18.507812 -22.265625 18.1875 -22.265625 L 13.640625 -22.265625 C 13.347656 -22.265625 13.148438 -22.34375 13.046875 -22.5 C 12.941406 -22.65625 12.890625 -22.90625 12.890625 -23.25 L 12.890625 -25.515625 C 12.890625 -26.003906 12.789062 -26.472656 12.59375 -26.921875 C 12.40625 -27.367188 12.125 -27.734375 11.75 -28.015625 C 11.375 -28.296875 10.914062 -28.4375 10.375 -28.4375 C 9.582031 -28.4375 8.941406 -28.144531 8.453125 -27.5625 C 7.960938 -26.988281 7.71875 -26.320312 7.71875 -25.5625 L 7.71875 -8.296875 C 7.71875 -7.796875 7.820312 -7.316406 8.03125 -6.859375 C 8.238281 -6.398438 8.539062 -6.03125 8.9375 -5.75 C 9.34375 -5.476562 9.820312 -5.34375 10.375 -5.34375 C 11.269531 -5.34375 11.929688 -5.644531 12.359375 -6.25 C 12.796875 -6.851562 13.015625 -7.535156 13.015625 -8.296875 L 13.015625 -11.203125 C 13.015625 -11.578125 13.066406 -11.828125 13.171875 -11.953125 C 13.273438 -12.085938 13.46875 -12.15625 13.75 -12.15625 L 18.3125 -12.15625 C 18.582031 -12.15625 18.78125 -12.097656 18.90625 -11.984375 C 19.039062 -11.867188 19.109375 -11.625 19.109375 -11.25 L 19.109375 -7.9375 C 19.109375 -6.175781 18.710938 -4.660156 17.921875 -3.390625 C 17.140625 -2.117188 16.082031 -1.144531 14.75 -0.46875 C 13.425781 0.195312 11.953125 0.53125 10.328125 0.53125 C 9.109375 0.53125 7.945312 0.34375 6.84375 -0.03125 C 5.75 -0.414062 4.773438 -0.972656 3.921875 -1.703125 C 3.078125 -2.441406 2.414062 -3.332031 1.9375 -4.375 C 1.457031 -5.425781 1.21875 -6.613281 1.21875 -7.9375 L 1.21875 -25.828125 C 1.21875 -27.035156 1.441406 -28.15625 1.890625 -29.1875 C 2.335938 -30.21875 2.96875 -31.113281 3.78125 -31.875 C 4.59375 -32.644531 5.550781 -33.238281 6.65625 -33.65625 C 7.769531 -34.082031 8.992188 -34.296875 10.328125 -34.296875 C 11.804688 -34.296875 13.09375 -34.050781 14.1875 -33.5625 C 15.28125 -33.082031 16.175781 -32.429688 16.875 -31.609375 C 17.582031 -30.796875 18.109375 -29.875 18.453125 -28.84375 C 18.796875 -27.820312 18.96875 -26.773438 18.96875 -25.703125 Z M 18.96875 -25.703125 "/></g></g></g><g fill="#135192" fill-opacity="1"><g transform="translate(171.07962, 280.389224)"><g><path d="M 17.75 -18.0625 L 17.75 -6.953125 C 17.75 -5.867188 17.53125 -4.867188 17.09375 -3.953125 C 16.664062 -3.046875 16.066406 -2.257812 15.296875 -1.59375 C 14.535156 -0.9375 13.644531 -0.425781 12.625 -0.0625 C 11.613281 0.289062 10.53125 0.46875 9.375 0.46875 C 8.21875 0.46875 7.132812 0.289062 6.125 -0.0625 C 5.113281 -0.425781 4.222656 -0.9375 3.453125 -1.59375 C 2.691406 -2.257812 2.097656 -3.046875 1.671875 -3.953125 C 1.242188 -4.867188 1.03125 -5.867188 1.03125 -6.953125 L 1.03125 -18.0625 C 1.03125 -19.09375 1.242188 -20.054688 1.671875 -20.953125 C 2.097656 -21.847656 2.691406 -22.628906 3.453125 -23.296875 C 4.210938 -23.972656 5.097656 -24.503906 6.109375 -24.890625 C 7.117188 -25.273438 8.191406 -25.46875 9.328125 -25.46875 C 10.492188 -25.46875 11.585938 -25.285156 12.609375 -24.921875 C 13.628906 -24.566406 14.523438 -24.054688 15.296875 -23.390625 C 16.066406 -22.734375 16.664062 -21.953125 17.09375 -21.046875 C 17.53125 -20.148438 17.75 -19.15625 17.75 -18.0625 Z M 9.40625 -20.046875 C 8.738281 -20.046875 8.203125 -19.820312 7.796875 -19.375 C 7.398438 -18.925781 7.203125 -18.429688 7.203125 -17.890625 L 7.203125 -7.125 C 7.203125 -6.570312 7.40625 -6.070312 7.8125 -5.625 C 8.21875 -5.175781 8.75 -4.953125 9.40625 -4.953125 C 10.070312 -4.953125 10.597656 -5.175781 10.984375 -5.625 C 11.378906 -6.070312 11.578125 -6.570312 11.578125 -7.125 L 11.578125 -17.875 C 11.578125 -18.425781 11.378906 -18.925781 10.984375 -19.375 C 10.597656 -19.820312 10.070312 -20.046875 9.40625 -20.046875 Z M 9.40625 -20.046875 "/></g></g></g><g fill="#135192" fill-opacity="1"><g transform="translate(189.8511, 280.389224)"><g><path d="M 22.234375 -0.859375 L 22.234375 -17.5 C 22.222656 -18.394531 22.015625 -19.023438 21.609375 -19.390625 C 21.210938 -19.765625 20.769531 -19.96875 20.28125 -20 L 19.96875 -20 C 19.445312 -19.976562 18.992188 -19.78125 18.609375 -19.40625 C 18.234375 -19.03125 18.046875 -18.363281 18.046875 -17.40625 L 18.046875 -0.859375 C 18.046875 -0.609375 17.976562 -0.398438 17.84375 -0.234375 C 17.71875 -0.078125 17.539062 0 17.3125 0 L 12.578125 0 C 12.085938 0 11.84375 -0.285156 11.84375 -0.859375 L 11.84375 -17.328125 C 11.820312 -18.035156 11.691406 -18.578125 11.453125 -18.953125 C 11.222656 -19.335938 10.941406 -19.609375 10.609375 -19.765625 C 10.285156 -19.921875 9.972656 -20 9.671875 -20 L 9.5 -20 C 8.988281 -19.96875 8.550781 -19.753906 8.1875 -19.359375 C 7.820312 -18.972656 7.640625 -18.25 7.640625 -17.1875 L 7.640625 -0.828125 C 7.640625 -0.617188 7.570312 -0.425781 7.4375 -0.25 C 7.3125 -0.0820312 7.132812 0 6.90625 0 L 2.171875 0 C 1.703125 0 1.46875 -0.273438 1.46875 -0.828125 L 1.46875 -17.328125 C 1.507812 -18.972656 1.78125 -20.320312 2.28125 -21.375 C 2.78125 -22.4375 3.425781 -23.265625 4.21875 -23.859375 C 5.019531 -24.453125 5.890625 -24.867188 6.828125 -25.109375 C 7.773438 -25.347656 8.710938 -25.46875 9.640625 -25.46875 L 9.8125 -25.46875 C 10.90625 -25.46875 11.894531 -25.265625 12.78125 -24.859375 C 13.664062 -24.453125 14.410156 -23.800781 15.015625 -22.90625 C 15.597656 -23.78125 16.328125 -24.425781 17.203125 -24.84375 C 18.085938 -25.257812 19.0625 -25.46875 20.125 -25.46875 L 20.3125 -25.46875 C 22.9375 -25.46875 24.945312 -24.742188 26.34375 -23.296875 C 27.738281 -21.847656 28.4375 -19.800781 28.4375 -17.15625 L 28.4375 -0.859375 C 28.4375 -0.609375 28.367188 -0.398438 28.234375 -0.234375 C 28.109375 -0.078125 27.929688 0 27.703125 0 L 22.96875 0 C 22.476562 0 22.234375 -0.285156 22.234375 -0.859375 Z M 22.234375 -0.859375 "/></g></g></g><g fill="#135192" fill-opacity="1"><g transform="translate(219.729241, 280.389224)"><g><path d="M 7.28125 -17.875 L 7.28125 -7 C 7.289062 -6.476562 7.492188 -6.003906 7.890625 -5.578125 C 8.296875 -5.160156 8.820312 -4.953125 9.46875 -4.953125 C 10.132812 -4.953125 10.660156 -5.175781 11.046875 -5.625 C 11.441406 -6.070312 11.640625 -6.570312 11.640625 -7.125 L 11.640625 -17.875 C 11.640625 -18.40625 11.441406 -18.898438 11.046875 -19.359375 C 10.660156 -19.816406 10.132812 -20.046875 9.46875 -20.046875 C 8.820312 -20.046875 8.296875 -19.820312 7.890625 -19.375 C 7.484375 -18.925781 7.28125 -18.425781 7.28125 -17.875 Z M 17.828125 -18.046875 L 17.828125 -6.9375 C 17.828125 -5.488281 17.492188 -4.207031 16.828125 -3.09375 C 16.171875 -1.976562 15.269531 -1.101562 14.125 -0.46875 C 12.988281 0.15625 11.691406 0.46875 10.234375 0.46875 C 9.773438 0.46875 9.289062 0.410156 8.78125 0.296875 C 8.28125 0.179688 7.78125 0.015625 7.28125 -0.203125 L 7.28125 7.03125 C 7.28125 7.582031 7.019531 7.859375 6.5 7.859375 L 1.90625 7.859375 C 1.363281 7.859375 1.09375 7.582031 1.09375 7.03125 L 1.09375 -18.046875 C 1.09375 -19.148438 1.304688 -20.148438 1.734375 -21.046875 C 2.171875 -21.953125 2.769531 -22.734375 3.53125 -23.390625 C 4.300781 -24.054688 5.191406 -24.566406 6.203125 -24.921875 C 7.210938 -25.285156 8.296875 -25.46875 9.453125 -25.46875 C 10.609375 -25.46875 11.691406 -25.285156 12.703125 -24.921875 C 13.722656 -24.566406 14.613281 -24.054688 15.375 -23.390625 C 16.144531 -22.734375 16.742188 -21.953125 17.171875 -21.046875 C 17.609375 -20.148438 17.828125 -19.148438 17.828125 -18.046875 Z M 17.828125 -18.046875 "/></g></g></g><g fill="#135192" fill-opacity="1"><g transform="translate(238.573951, 280.389224)"><g><path d="M 11.15625 -4.640625 L 11.15625 -0.78125 C 11.15625 -0.613281 11.085938 -0.441406 10.953125 -0.265625 C 10.828125 -0.0859375 10.441406 0 9.796875 0 L 8.25 0 C 7.320312 0 6.445312 -0.113281 5.625 -0.34375 C 4.800781 -0.570312 4.078125 -0.957031 3.453125 -1.5 C 2.828125 -2.039062 2.335938 -2.785156 1.984375 -3.734375 C 1.640625 -4.679688 1.46875 -5.867188 1.46875 -7.296875 L 1.46875 -32.953125 C 1.46875 -33.515625 1.742188 -33.796875 2.296875 -33.796875 L 6.859375 -33.796875 C 7.398438 -33.796875 7.671875 -33.515625 7.671875 -32.953125 L 7.671875 -7.671875 C 7.671875 -6.984375 7.832031 -6.457031 8.15625 -6.09375 C 8.476562 -5.726562 9.085938 -5.546875 9.984375 -5.546875 L 10.40625 -5.546875 C 10.78125 -5.546875 11 -5.4375 11.0625 -5.21875 C 11.125 -5.007812 11.15625 -4.816406 11.15625 -4.640625 Z M 11.15625 -4.640625 "/></g></g></g><g fill="#135192" fill-opacity="1"><g transform="translate(250.412932, 280.389224)"><g><path d="M 1.4375 -0.8125 L 1.4375 -24.25 C 1.4375 -24.46875 1.519531 -24.644531 1.6875 -24.78125 C 1.863281 -24.925781 2.054688 -25 2.265625 -25 L 6.734375 -25 C 6.984375 -25 7.203125 -24.925781 7.390625 -24.78125 C 7.578125 -24.632812 7.671875 -24.457031 7.671875 -24.25 L 7.671875 -0.8125 C 7.671875 -0.550781 7.582031 -0.347656 7.40625 -0.203125 C 7.238281 -0.0664062 7.015625 0 6.734375 0 L 2.265625 0 C 1.710938 0 1.4375 -0.269531 1.4375 -0.8125 Z M 7.78125 -31.421875 L 7.78125 -28.046875 C 7.78125 -27.597656 7.671875 -27.285156 7.453125 -27.109375 C 7.234375 -26.941406 6.921875 -26.859375 6.515625 -26.859375 L 2.59375 -26.859375 C 2.164062 -26.859375 1.820312 -26.9375 1.5625 -27.09375 C 1.300781 -27.257812 1.171875 -27.570312 1.171875 -28.03125 L 1.171875 -31.453125 C 1.171875 -31.816406 1.273438 -32.117188 1.484375 -32.359375 C 1.703125 -32.609375 2.0625 -32.734375 2.5625 -32.734375 L 6.515625 -32.734375 C 6.992188 -32.734375 7.320312 -32.617188 7.5 -32.390625 C 7.6875 -32.171875 7.78125 -31.847656 7.78125 -31.421875 Z M 7.78125 -31.421875 "/></g></g></g><g fill="#135192" fill-opacity="1"><g transform="translate(259.517942, 280.389224)"><g><path d="M 11.546875 -7.25 L 11.546875 -10.96875 L 10.40625 -10.96875 C 9.519531 -10.96875 8.828125 -10.828125 8.328125 -10.546875 C 7.835938 -10.265625 7.492188 -9.894531 7.296875 -9.4375 C 7.097656 -8.988281 7 -8.492188 7 -7.953125 L 7 -7.59375 C 7 -6.976562 7.117188 -6.472656 7.359375 -6.078125 C 7.609375 -5.691406 7.914062 -5.40625 8.28125 -5.21875 C 8.65625 -5.039062 9.019531 -4.953125 9.375 -4.953125 C 9.894531 -4.953125 10.382812 -5.132812 10.84375 -5.5 C 11.3125 -5.875 11.546875 -6.457031 11.546875 -7.25 Z M 8.671875 -15.375 L 11.546875 -15.359375 L 11.546875 -17.09375 C 11.546875 -17.59375 11.4375 -18.097656 11.21875 -18.609375 C 11.007812 -19.128906 10.679688 -19.5625 10.234375 -19.90625 C 9.796875 -20.257812 9.207031 -20.4375 8.46875 -20.4375 C 7.476562 -20.4375 6.640625 -20.300781 5.953125 -20.03125 C 5.273438 -19.757812 4.707031 -19.460938 4.25 -19.140625 C 4.132812 -19.078125 4.015625 -19.015625 3.890625 -18.953125 C 3.773438 -18.898438 3.660156 -18.875 3.546875 -18.875 C 3.347656 -18.875 3.191406 -18.976562 3.078125 -19.1875 L 1.859375 -21.90625 C 1.742188 -22.125 1.695312 -22.351562 1.71875 -22.59375 C 1.75 -22.84375 1.96875 -23.09375 2.375 -23.34375 C 2.96875 -23.71875 3.59375 -24.0625 4.25 -24.375 C 4.914062 -24.695312 5.664062 -24.957031 6.5 -25.15625 C 7.34375 -25.363281 8.332031 -25.46875 9.46875 -25.46875 C 10.476562 -25.46875 11.472656 -25.300781 12.453125 -24.96875 C 13.429688 -24.632812 14.3125 -24.132812 15.09375 -23.46875 C 15.882812 -22.8125 16.515625 -22 16.984375 -21.03125 C 17.460938 -20.0625 17.703125 -18.941406 17.703125 -17.671875 L 17.703125 -7.03125 C 17.703125 -5.8125 17.5 -4.769531 17.09375 -3.90625 C 16.6875 -3.039062 16.15625 -2.320312 15.5 -1.75 C 14.851562 -1.1875 14.148438 -0.738281 13.390625 -0.40625 C 12.628906 -0.0820312 11.882812 0.140625 11.15625 0.265625 C 10.4375 0.398438 9.816406 0.46875 9.296875 0.46875 C 8.335938 0.46875 7.363281 0.316406 6.375 0.015625 C 5.382812 -0.285156 4.46875 -0.753906 3.625 -1.390625 C 2.789062 -2.023438 2.113281 -2.847656 1.59375 -3.859375 C 1.082031 -4.867188 0.828125 -6.082031 0.828125 -7.5 L 0.828125 -8.03125 C 0.828125 -9.332031 1.035156 -10.445312 1.453125 -11.375 C 1.878906 -12.300781 2.457031 -13.0625 3.1875 -13.65625 C 3.925781 -14.25 4.765625 -14.679688 5.703125 -14.953125 C 6.648438 -15.234375 7.640625 -15.375 8.671875 -15.375 Z M 8.671875 -15.375 "/></g></g></g><g fill="#135192" fill-opacity="1"><g transform="translate(278.265012, 280.389224)"><g><path d="M 17.4375 0 L 12.71875 0 C 12.507812 0 12.332031 -0.0703125 12.1875 -0.21875 C 12.050781 -0.363281 11.984375 -0.566406 11.984375 -0.828125 L 11.984375 -17.9375 C 11.953125 -18.507812 11.75 -19.003906 11.375 -19.421875 C 11 -19.835938 10.476562 -20.046875 9.8125 -20.046875 C 9.144531 -20.046875 8.617188 -19.832031 8.234375 -19.40625 C 7.859375 -18.988281 7.65625 -18.492188 7.625 -17.921875 L 7.625 -0.859375 C 7.625 -0.285156 7.394531 0 6.9375 0 L 2.171875 0 C 1.960938 0 1.785156 -0.0703125 1.640625 -0.21875 C 1.503906 -0.363281 1.4375 -0.578125 1.4375 -0.859375 L 1.4375 -17.890625 C 1.4375 -18.890625 1.632812 -19.835938 2.03125 -20.734375 C 2.4375 -21.640625 3 -22.445312 3.71875 -23.15625 C 4.445312 -23.863281 5.3125 -24.425781 6.3125 -24.84375 C 7.3125 -25.257812 8.414062 -25.46875 9.625 -25.46875 C 11.445312 -25.46875 12.988281 -25.125 14.25 -24.4375 C 15.519531 -23.75 16.488281 -22.835938 17.15625 -21.703125 C 17.832031 -20.566406 18.171875 -19.304688 18.171875 -17.921875 L 18.171875 -0.828125 C 18.171875 -0.566406 18.097656 -0.363281 17.953125 -0.21875 C 17.816406 -0.0703125 17.644531 0 17.4375 0 Z M 17.4375 0 "/></g></g></g><g fill="#135192" fill-opacity="1"><g transform="translate(297.89085, 280.389224)"><g><path d="M 12.40625 -9.234375 L 16.703125 -9.234375 C 16.960938 -9.234375 17.140625 -9.175781 17.234375 -9.0625 C 17.335938 -8.945312 17.390625 -8.75 17.390625 -8.46875 L 17.390625 -6.953125 C 17.390625 -5.929688 17.1875 -4.96875 16.78125 -4.0625 C 16.382812 -3.15625 15.828125 -2.363281 15.109375 -1.6875 C 14.390625 -1.019531 13.535156 -0.492188 12.546875 -0.109375 C 11.566406 0.273438 10.492188 0.46875 9.328125 0.46875 C 8.191406 0.46875 7.117188 0.289062 6.109375 -0.0625 C 5.097656 -0.425781 4.210938 -0.9375 3.453125 -1.59375 C 2.691406 -2.257812 2.097656 -3.046875 1.671875 -3.953125 C 1.242188 -4.867188 1.03125 -5.867188 1.03125 -6.953125 L 1.03125 -18.0625 C 1.03125 -19.09375 1.242188 -20.050781 1.671875 -20.9375 C 2.097656 -21.820312 2.691406 -22.601562 3.453125 -23.28125 C 4.210938 -23.96875 5.097656 -24.503906 6.109375 -24.890625 C 7.117188 -25.273438 8.191406 -25.46875 9.328125 -25.46875 C 10.492188 -25.46875 11.566406 -25.273438 12.546875 -24.890625 C 13.535156 -24.503906 14.390625 -23.96875 15.109375 -23.28125 C 15.828125 -22.601562 16.382812 -21.820312 16.78125 -20.9375 C 17.1875 -20.050781 17.390625 -19.09375 17.390625 -18.0625 L 17.390625 -16.140625 C 17.390625 -15.828125 17.332031 -15.613281 17.21875 -15.5 C 17.113281 -15.382812 16.941406 -15.328125 16.703125 -15.328125 L 12.59375 -15.328125 C 12.238281 -15.328125 11.992188 -15.382812 11.859375 -15.5 C 11.734375 -15.613281 11.671875 -15.832031 11.671875 -16.15625 L 11.671875 -17.84375 C 11.671875 -18.394531 11.476562 -18.898438 11.09375 -19.359375 C 10.707031 -19.816406 10.164062 -20.046875 9.46875 -20.046875 C 8.820312 -20.046875 8.28125 -19.820312 7.84375 -19.375 C 7.414062 -18.925781 7.203125 -18.429688 7.203125 -17.890625 L 7.203125 -7.125 C 7.203125 -6.570312 7.414062 -6.070312 7.84375 -5.625 C 8.28125 -5.175781 8.820312 -4.953125 9.46875 -4.953125 C 10.164062 -4.953125 10.707031 -5.179688 11.09375 -5.640625 C 11.476562 -6.109375 11.671875 -6.613281 11.671875 -7.15625 L 11.671875 -8.375 C 11.671875 -8.695312 11.722656 -8.921875 11.828125 -9.046875 C 11.929688 -9.171875 12.125 -9.234375 12.40625 -9.234375 Z M 12.40625 -9.234375 "/></g></g></g><g fill="#135192" fill-opacity="1"><g transform="translate(316.052073, 280.389224)"><g><path d="M 9.5 -20.171875 C 8.832031 -20.171875 8.285156 -19.945312 7.859375 -19.5 C 7.441406 -19.0625 7.234375 -18.566406 7.234375 -18.015625 L 7.234375 -15.28125 L 11.671875 -15.28125 L 11.671875 -18 C 11.671875 -18.5625 11.472656 -19.0625 11.078125 -19.5 C 10.691406 -19.945312 10.164062 -20.171875 9.5 -20.171875 Z M 17.234375 -7.671875 L 17.234375 -6.953125 C 17.234375 -5.585938 16.90625 -4.34375 16.25 -3.21875 C 15.59375 -2.09375 14.664062 -1.195312 13.46875 -0.53125 C 12.28125 0.132812 10.90625 0.46875 9.34375 0.46875 C 8.207031 0.46875 7.132812 0.273438 6.125 -0.109375 C 5.113281 -0.492188 4.226562 -1.019531 3.46875 -1.6875 C 2.71875 -2.363281 2.125 -3.15625 1.6875 -4.0625 C 1.257812 -4.96875 1.046875 -5.929688 1.046875 -6.953125 L 1.046875 -18.0625 C 1.046875 -19.09375 1.257812 -20.050781 1.6875 -20.9375 C 2.125 -21.820312 2.71875 -22.601562 3.46875 -23.28125 C 4.226562 -23.96875 5.113281 -24.503906 6.125 -24.890625 C 7.132812 -25.273438 8.207031 -25.46875 9.34375 -25.46875 C 10.519531 -25.46875 11.59375 -25.273438 12.5625 -24.890625 C 13.53125 -24.503906 14.367188 -23.96875 15.078125 -23.28125 C 15.785156 -22.601562 16.328125 -21.820312 16.703125 -20.9375 C 17.085938 -20.050781 17.28125 -19.09375 17.28125 -18.0625 L 17.28125 -12.015625 C 17.28125 -11.734375 17.191406 -11.507812 17.015625 -11.34375 C 16.835938 -11.1875 16.609375 -11.109375 16.328125 -11.109375 L 7.234375 -11.109375 L 7.234375 -6.953125 C 7.234375 -6.421875 7.441406 -5.929688 7.859375 -5.484375 C 8.285156 -5.035156 8.832031 -4.8125 9.5 -4.8125 C 10.195312 -4.8125 10.734375 -5.039062 11.109375 -5.5 C 11.484375 -5.96875 11.671875 -6.46875 11.671875 -7 L 11.671875 -7.71875 C 11.671875 -7.863281 11.726562 -7.992188 11.84375 -8.109375 C 11.957031 -8.234375 12.128906 -8.296875 12.359375 -8.296875 L 16.609375 -8.296875 C 16.796875 -8.296875 16.945312 -8.25 17.0625 -8.15625 C 17.175781 -8.070312 17.234375 -7.910156 17.234375 -7.671875 Z M 17.234375 -7.671875 "/></g></g></g><g fill="#000000" fill-opacity="1"><g transform="translate(46.501877, 302.122891)"><g><path d="M 4.171875 0.09375 C 3.523438 0.09375 2.945312 -0.0195312 2.4375 -0.25 C 1.9375 -0.476562 1.539062 -0.796875 1.25 -1.203125 C 0.957031 -1.609375 0.804688 -2.078125 0.796875 -2.609375 L 2.15625 -2.609375 C 2.195312 -2.148438 2.382812 -1.765625 2.71875 -1.453125 C 3.050781 -1.140625 3.535156 -0.984375 4.171875 -0.984375 C 4.773438 -0.984375 5.25 -1.132812 5.59375 -1.4375 C 5.945312 -1.738281 6.125 -2.128906 6.125 -2.609375 C 6.125 -2.972656 6.019531 -3.269531 5.8125 -3.5 C 5.613281 -3.738281 5.359375 -3.921875 5.046875 -4.046875 C 4.742188 -4.171875 4.332031 -4.300781 3.8125 -4.4375 C 3.164062 -4.601562 2.648438 -4.769531 2.265625 -4.9375 C 1.878906 -5.101562 1.546875 -5.363281 1.265625 -5.71875 C 0.992188 -6.082031 0.859375 -6.570312 0.859375 -7.1875 C 0.859375 -7.71875 0.992188 -8.1875 1.265625 -8.59375 C 1.535156 -9.007812 1.914062 -9.328125 2.40625 -9.546875 C 2.894531 -9.773438 3.457031 -9.890625 4.09375 -9.890625 C 5 -9.890625 5.742188 -9.660156 6.328125 -9.203125 C 6.910156 -8.742188 7.242188 -8.132812 7.328125 -7.375 L 5.921875 -7.375 C 5.878906 -7.75 5.679688 -8.078125 5.328125 -8.359375 C 4.984375 -8.648438 4.53125 -8.796875 3.96875 -8.796875 C 3.425781 -8.796875 2.988281 -8.65625 2.65625 -8.375 C 2.320312 -8.101562 2.15625 -7.71875 2.15625 -7.21875 C 2.15625 -6.863281 2.253906 -6.570312 2.453125 -6.34375 C 2.660156 -6.125 2.910156 -5.957031 3.203125 -5.84375 C 3.492188 -5.726562 3.90625 -5.597656 4.4375 -5.453125 C 5.082031 -5.273438 5.597656 -5.097656 5.984375 -4.921875 C 6.378906 -4.742188 6.71875 -4.472656 7 -4.109375 C 7.28125 -3.753906 7.421875 -3.269531 7.421875 -2.65625 C 7.421875 -2.1875 7.289062 -1.738281 7.03125 -1.3125 C 6.78125 -0.894531 6.410156 -0.554688 5.921875 -0.296875 C 5.429688 -0.0351562 4.847656 0.09375 4.171875 0.09375 Z M 4.171875 0.09375 "/></g></g></g><g fill="#000000" fill-opacity="1"><g transform="translate(55.695281, 302.122891)"><g><path d="M 2.359375 -9.765625 L 2.359375 0 L 1.078125 0 L 1.078125 -9.765625 Z M 2.359375 -9.765625 "/></g></g></g><g fill="#000000" fill-opacity="1"><g transform="translate(60.117347, 302.122891)"><g><path d="M 10.96875 -9.6875 L 10.96875 0 L 9.703125 0 L 9.703125 -7.21875 L 6.484375 0 L 5.59375 0 L 2.359375 -7.234375 L 2.359375 0 L 1.078125 0 L 1.078125 -9.6875 L 2.453125 -9.6875 L 6.03125 -1.6875 L 9.625 -9.6875 Z M 10.96875 -9.6875 "/></g></g></g><g fill="#000000" fill-opacity="1"><g transform="translate(73.144613, 302.122891)"><g><path d="M 7.609375 -6.90625 C 7.609375 -6.09375 7.328125 -5.414062 6.765625 -4.875 C 6.210938 -4.34375 5.367188 -4.078125 4.234375 -4.078125 L 2.359375 -4.078125 L 2.359375 0 L 1.078125 0 L 1.078125 -9.765625 L 4.234375 -9.765625 C 5.328125 -9.765625 6.160156 -9.492188 6.734375 -8.953125 C 7.316406 -8.421875 7.609375 -7.738281 7.609375 -6.90625 Z M 4.234375 -5.125 C 4.941406 -5.125 5.460938 -5.273438 5.796875 -5.578125 C 6.128906 -5.890625 6.296875 -6.332031 6.296875 -6.90625 C 6.296875 -8.101562 5.609375 -8.703125 4.234375 -8.703125 L 2.359375 -8.703125 L 2.359375 -5.125 Z M 4.234375 -5.125 "/></g></g></g><g fill="#000000" fill-opacity="1"><g transform="translate(82.226083, 302.122891)"><g><path d="M 2.359375 -1.03125 L 5.765625 -1.03125 L 5.765625 0 L 1.078125 0 L 1.078125 -9.765625 L 2.359375 -9.765625 Z M 2.359375 -1.03125 "/></g></g></g><g fill="#000000" fill-opacity="1"><g transform="translate(89.250707, 302.122891)"><g><path d="M 2.359375 -9.765625 L 2.359375 0 L 1.078125 0 L 1.078125 -9.765625 Z M 2.359375 -9.765625 "/></g></g></g><g fill="#000000" fill-opacity="1"><g transform="translate(93.672772, 302.122891)"><g><path d="M 6.59375 -9.765625 L 6.59375 -8.71875 L 2.359375 -8.71875 L 2.359375 -5.4375 L 5.796875 -5.4375 L 5.796875 -4.390625 L 2.359375 -4.390625 L 2.359375 0 L 1.078125 0 L 1.078125 -9.765625 Z M 6.59375 -9.765625 "/></g></g></g><g fill="#000000" fill-opacity="1"><g transform="translate(101.70483, 302.122891)"><g><path d="M 7.90625 -9.765625 L 4.734375 -3.6875 L 4.734375 0 L 3.453125 0 L 3.453125 -3.6875 L 0.265625 -9.765625 L 1.6875 -9.765625 L 4.09375 -4.8125 L 6.5 -9.765625 Z M 7.90625 -9.765625 "/></g></g></g><g fill="#000000" fill-opacity="1"><g transform="translate(110.856258, 302.122891)"><g><path d="M 2.359375 -9.765625 L 2.359375 0 L 1.078125 0 L 1.078125 -9.765625 Z M 2.359375 -9.765625 "/></g></g></g><g fill="#000000" fill-opacity="1"><g transform="translate(115.278323, 302.122891)"><g><path d="M 8.75 0 L 7.46875 0 L 2.359375 -7.765625 L 2.359375 0 L 1.078125 0 L 1.078125 -9.765625 L 2.359375 -9.765625 L 7.46875 -2.015625 L 7.46875 -9.765625 L 8.75 -9.765625 Z M 8.75 0 "/></g></g></g><g fill="#000000" fill-opacity="1"><g transform="translate(126.094821, 302.122891)"><g><path d="M 8.46875 -6.9375 C 8.195312 -7.5 7.804688 -7.9375 7.296875 -8.25 C 6.785156 -8.5625 6.1875 -8.71875 5.5 -8.71875 C 4.820312 -8.71875 4.207031 -8.5625 3.65625 -8.25 C 3.113281 -7.9375 2.6875 -7.488281 2.375 -6.90625 C 2.0625 -6.320312 1.90625 -5.648438 1.90625 -4.890625 C 1.90625 -4.117188 2.0625 -3.441406 2.375 -2.859375 C 2.6875 -2.285156 3.113281 -1.84375 3.65625 -1.53125 C 4.207031 -1.21875 4.820312 -1.0625 5.5 -1.0625 C 6.457031 -1.0625 7.242188 -1.34375 7.859375 -1.90625 C 8.472656 -2.476562 8.832031 -3.253906 8.9375 -4.234375 L 5.046875 -4.234375 L 5.046875 -5.265625 L 10.296875 -5.265625 L 10.296875 -4.28125 C 10.210938 -3.476562 9.957031 -2.742188 9.53125 -2.078125 C 9.101562 -1.410156 8.539062 -0.882812 7.84375 -0.5 C 7.144531 -0.113281 6.363281 0.078125 5.5 0.078125 C 4.59375 0.078125 3.765625 -0.128906 3.015625 -0.546875 C 2.273438 -0.972656 1.6875 -1.5625 1.25 -2.3125 C 0.820312 -3.070312 0.609375 -3.929688 0.609375 -4.890625 C 0.609375 -5.835938 0.820312 -6.691406 1.25 -7.453125 C 1.6875 -8.210938 2.273438 -8.804688 3.015625 -9.234375 C 3.765625 -9.660156 4.59375 -9.875 5.5 -9.875 C 6.539062 -9.875 7.457031 -9.613281 8.25 -9.09375 C 9.050781 -8.582031 9.632812 -7.863281 10 -6.9375 Z M 8.46875 -6.9375 "/></g></g></g><g fill="#000000" fill-opacity="1"><g transform="translate(137.960741, 302.122891)"><g/></g></g><g fill="#000000" fill-opacity="1"><g transform="translate(142.676645, 302.122891)"><g><path d="M 0.609375 -4.890625 C 0.609375 -5.835938 0.820312 -6.691406 1.25 -7.453125 C 1.675781 -8.210938 2.257812 -8.804688 3 -9.234375 C 3.738281 -9.671875 4.5625 -9.890625 5.46875 -9.890625 C 6.53125 -9.890625 7.457031 -9.628906 8.25 -9.109375 C 9.050781 -8.597656 9.632812 -7.875 10 -6.9375 L 8.46875 -6.9375 C 8.195312 -7.519531 7.804688 -7.96875 7.296875 -8.28125 C 6.785156 -8.601562 6.175781 -8.765625 5.46875 -8.765625 C 4.789062 -8.765625 4.179688 -8.601562 3.640625 -8.28125 C 3.097656 -7.96875 2.671875 -7.519531 2.359375 -6.9375 C 2.054688 -6.351562 1.90625 -5.671875 1.90625 -4.890625 C 1.90625 -4.109375 2.054688 -3.425781 2.359375 -2.84375 C 2.671875 -2.257812 3.097656 -1.804688 3.640625 -1.484375 C 4.179688 -1.171875 4.789062 -1.015625 5.46875 -1.015625 C 6.175781 -1.015625 6.785156 -1.171875 7.296875 -1.484375 C 7.804688 -1.796875 8.195312 -2.25 8.46875 -2.84375 L 10 -2.84375 C 9.632812 -1.90625 9.050781 -1.179688 8.25 -0.671875 C 7.457031 -0.171875 6.53125 0.078125 5.46875 0.078125 C 4.5625 0.078125 3.738281 -0.128906 3 -0.546875 C 2.257812 -0.972656 1.675781 -1.5625 1.25 -2.3125 C 0.820312 -3.070312 0.609375 -3.929688 0.609375 -4.890625 Z M 0.609375 -4.890625 "/></g></g></g><g fill="#000000" fill-opacity="1"><g transform="translate(154.458611, 302.122891)"><g><path d="M 5.5 0.09375 C 4.59375 0.09375 3.765625 -0.113281 3.015625 -0.53125 C 2.273438 -0.957031 1.6875 -1.550781 1.25 -2.3125 C 0.820312 -3.070312 0.609375 -3.929688 0.609375 -4.890625 C 0.609375 -5.835938 0.820312 -6.691406 1.25 -7.453125 C 1.6875 -8.210938 2.273438 -8.804688 3.015625 -9.234375 C 3.765625 -9.660156 4.59375 -9.875 5.5 -9.875 C 6.414062 -9.875 7.242188 -9.660156 7.984375 -9.234375 C 8.734375 -8.804688 9.320312 -8.210938 9.75 -7.453125 C 10.1875 -6.703125 10.40625 -5.847656 10.40625 -4.890625 C 10.40625 -3.921875 10.1875 -3.054688 9.75 -2.296875 C 9.320312 -1.546875 8.734375 -0.957031 7.984375 -0.53125 C 7.242188 -0.113281 6.414062 0.09375 5.5 0.09375 Z M 5.5 -1.015625 C 6.1875 -1.015625 6.800781 -1.171875 7.34375 -1.484375 C 7.882812 -1.796875 8.3125 -2.242188 8.625 -2.828125 C 8.9375 -3.421875 9.09375 -4.109375 9.09375 -4.890625 C 9.09375 -5.671875 8.9375 -6.351562 8.625 -6.9375 C 8.3125 -7.519531 7.882812 -7.96875 7.34375 -8.28125 C 6.800781 -8.601562 6.1875 -8.765625 5.5 -8.765625 C 4.8125 -8.765625 4.195312 -8.601562 3.65625 -8.28125 C 3.113281 -7.96875 2.6875 -7.519531 2.375 -6.9375 C 2.0625 -6.351562 1.90625 -5.671875 1.90625 -4.890625 C 1.90625 -4.109375 2.0625 -3.421875 2.375 -2.828125 C 2.6875 -2.242188 3.113281 -1.796875 3.65625 -1.484375 C 4.207031 -1.171875 4.820312 -1.015625 5.5 -1.015625 Z M 5.5 -1.015625 "/></g></g></g><g fill="#000000" fill-opacity="1"><g transform="translate(166.436466, 302.122891)"><g><path d="M 10.96875 -9.6875 L 10.96875 0 L 9.703125 0 L 9.703125 -7.21875 L 6.484375 0 L 5.59375 0 L 2.359375 -7.234375 L 2.359375 0 L 1.078125 0 L 1.078125 -9.6875 L 2.453125 -9.6875 L 6.03125 -1.6875 L 9.625 -9.6875 Z M 10.96875 -9.6875 "/></g></g></g><g fill="#000000" fill-opacity="1"><g transform="translate(179.463733, 302.122891)"><g><path d="M 7.609375 -6.90625 C 7.609375 -6.09375 7.328125 -5.414062 6.765625 -4.875 C 6.210938 -4.34375 5.367188 -4.078125 4.234375 -4.078125 L 2.359375 -4.078125 L 2.359375 0 L 1.078125 0 L 1.078125 -9.765625 L 4.234375 -9.765625 C 5.328125 -9.765625 6.160156 -9.492188 6.734375 -8.953125 C 7.316406 -8.421875 7.609375 -7.738281 7.609375 -6.90625 Z M 4.234375 -5.125 C 4.941406 -5.125 5.460938 -5.273438 5.796875 -5.578125 C 6.128906 -5.890625 6.296875 -6.332031 6.296875 -6.90625 C 6.296875 -8.101562 5.609375 -8.703125 4.234375 -8.703125 L 2.359375 -8.703125 L 2.359375 -5.125 Z M 4.234375 -5.125 "/></g></g></g><g fill="#000000" fill-opacity="1"><g transform="translate(188.545202, 302.122891)"><g><path d="M 2.359375 -1.03125 L 5.765625 -1.03125 L 5.765625 0 L 1.078125 0 L 1.078125 -9.765625 L 2.359375 -9.765625 Z M 2.359375 -1.03125 "/></g></g></g><g fill="#000000" fill-opacity="1"><g transform="translate(195.569826, 302.122891)"><g><path d="M 2.359375 -9.765625 L 2.359375 0 L 1.078125 0 L 1.078125 -9.765625 Z M 2.359375 -9.765625 "/></g></g></g><g fill="#000000" fill-opacity="1"><g transform="translate(199.991891, 302.122891)"><g><path d="M 6.84375 -2.171875 L 2.59375 -2.171875 L 1.8125 0 L 0.46875 0 L 3.984375 -9.703125 L 5.453125 -9.703125 L 8.96875 0 L 7.625 0 Z M 6.484375 -3.203125 L 4.71875 -8.140625 L 2.953125 -3.203125 Z M 6.484375 -3.203125 "/></g></g></g><g fill="#000000" fill-opacity="1"><g transform="translate(210.402615, 302.122891)"><g><path d="M 8.75 0 L 7.46875 0 L 2.359375 -7.765625 L 2.359375 0 L 1.078125 0 L 1.078125 -9.765625 L 2.359375 -9.765625 L 7.46875 -2.015625 L 7.46875 -9.765625 L 8.75 -9.765625 Z M 8.75 0 "/></g></g></g><g fill="#000000" fill-opacity="1"><g transform="translate(221.219112, 302.122891)"><g><path d="M 0.609375 -4.890625 C 0.609375 -5.835938 0.820312 -6.691406 1.25 -7.453125 C 1.675781 -8.210938 2.257812 -8.804688 3 -9.234375 C 3.738281 -9.671875 4.5625 -9.890625 5.46875 -9.890625 C 6.53125 -9.890625 7.457031 -9.628906 8.25 -9.109375 C 9.050781 -8.597656 9.632812 -7.875 10 -6.9375 L 8.46875 -6.9375 C 8.195312 -7.519531 7.804688 -7.96875 7.296875 -8.28125 C 6.785156 -8.601562 6.175781 -8.765625 5.46875 -8.765625 C 4.789062 -8.765625 4.179688 -8.601562 3.640625 -8.28125 C 3.097656 -7.96875 2.671875 -7.519531 2.359375 -6.9375 C 2.054688 -6.351562 1.90625 -5.671875 1.90625 -4.890625 C 1.90625 -4.109375 2.054688 -3.425781 2.359375 -2.84375 C 2.671875 -2.257812 3.097656 -1.804688 3.640625 -1.484375 C 4.179688 -1.171875 4.789062 -1.015625 5.46875 -1.015625 C 6.175781 -1.015625 6.785156 -1.171875 7.296875 -1.484375 C 7.804688 -1.796875 8.195312 -2.25 8.46875 -2.84375 L 10 -2.84375 C 9.632812 -1.90625 9.050781 -1.179688 8.25 -0.671875 C 7.457031 -0.171875 6.53125 0.078125 5.46875 0.078125 C 4.5625 0.078125 3.738281 -0.128906 3 -0.546875 C 2.257812 -0.972656 1.675781 -1.5625 1.25 -2.3125 C 0.820312 -3.070312 0.609375 -3.929688 0.609375 -4.890625 Z M 0.609375 -4.890625 "/></g></g></g><g fill="#000000" fill-opacity="1"><g transform="translate(233.001079, 302.122891)"><g><path d="M 2.359375 -8.71875 L 2.359375 -5.453125 L 5.90625 -5.453125 L 5.90625 -4.40625 L 2.359375 -4.40625 L 2.359375 -1.046875 L 6.328125 -1.046875 L 6.328125 0 L 1.078125 0 L 1.078125 -9.765625 L 6.328125 -9.765625 L 6.328125 -8.71875 Z M 2.359375 -8.71875 "/></g></g></g><g fill="#000000" fill-opacity="1"><g transform="translate(241.159068, 302.122891)"><g/></g></g><g fill="#000000" fill-opacity="1"><g transform="translate(245.874972, 302.122891)"><g><path d="M 4.171875 0.09375 C 3.523438 0.09375 2.945312 -0.0195312 2.4375 -0.25 C 1.9375 -0.476562 1.539062 -0.796875 1.25 -1.203125 C 0.957031 -1.609375 0.804688 -2.078125 0.796875 -2.609375 L 2.15625 -2.609375 C 2.195312 -2.148438 2.382812 -1.765625 2.71875 -1.453125 C 3.050781 -1.140625 3.535156 -0.984375 4.171875 -0.984375 C 4.773438 -0.984375 5.25 -1.132812 5.59375 -1.4375 C 5.945312 -1.738281 6.125 -2.128906 6.125 -2.609375 C 6.125 -2.972656 6.019531 -3.269531 5.8125 -3.5 C 5.613281 -3.738281 5.359375 -3.921875 5.046875 -4.046875 C 4.742188 -4.171875 4.332031 -4.300781 3.8125 -4.4375 C 3.164062 -4.601562 2.648438 -4.769531 2.265625 -4.9375 C 1.878906 -5.101562 1.546875 -5.363281 1.265625 -5.71875 C 0.992188 -6.082031 0.859375 -6.570312 0.859375 -7.1875 C 0.859375 -7.71875 0.992188 -8.1875 1.265625 -8.59375 C 1.535156 -9.007812 1.914062 -9.328125 2.40625 -9.546875 C 2.894531 -9.773438 3.457031 -9.890625 4.09375 -9.890625 C 5 -9.890625 5.742188 -9.660156 6.328125 -9.203125 C 6.910156 -8.742188 7.242188 -8.132812 7.328125 -7.375 L 5.921875 -7.375 C 5.878906 -7.75 5.679688 -8.078125 5.328125 -8.359375 C 4.984375 -8.648438 4.53125 -8.796875 3.96875 -8.796875 C 3.425781 -8.796875 2.988281 -8.65625 2.65625 -8.375 C 2.320312 -8.101562 2.15625 -7.71875 2.15625 -7.21875 C 2.15625 -6.863281 2.253906 -6.570312 2.453125 -6.34375 C 2.660156 -6.125 2.910156 -5.957031 3.203125 -5.84375 C 3.492188 -5.726562 3.90625 -5.597656 4.4375 -5.453125 C 5.082031 -5.273438 5.597656 -5.097656 5.984375 -4.921875 C 6.378906 -4.742188 6.71875 -4.472656 7 -4.109375 C 7.28125 -3.753906 7.421875 -3.269531 7.421875 -2.65625 C 7.421875 -2.1875 7.289062 -1.738281 7.03125 -1.3125 C 6.78125 -0.894531 6.410156 -0.554688 5.921875 -0.296875 C 5.429688 -0.0351562 4.847656 0.09375 4.171875 0.09375 Z M 4.171875 0.09375 "/></g></g></g><g fill="#000000" fill-opacity="1"><g transform="translate(255.068376, 302.122891)"><g><path d="M 5.5 0.09375 C 4.59375 0.09375 3.765625 -0.113281 3.015625 -0.53125 C 2.273438 -0.957031 1.6875 -1.550781 1.25 -2.3125 C 0.820312 -3.070312 0.609375 -3.929688 0.609375 -4.890625 C 0.609375 -5.835938 0.820312 -6.691406 1.25 -7.453125 C 1.6875 -8.210938 2.273438 -8.804688 3.015625 -9.234375 C 3.765625 -9.660156 4.59375 -9.875 5.5 -9.875 C 6.414062 -9.875 7.242188 -9.660156 7.984375 -9.234375 C 8.734375 -8.804688 9.320312 -8.210938 9.75 -7.453125 C 10.1875 -6.703125 10.40625 -5.847656 10.40625 -4.890625 C 10.40625 -3.921875 10.1875 -3.054688 9.75 -2.296875 C 9.320312 -1.546875 8.734375 -0.957031 7.984375 -0.53125 C 7.242188 -0.113281 6.414062 0.09375 5.5 0.09375 Z M 5.5 -1.015625 C 6.1875 -1.015625 6.800781 -1.171875 7.34375 -1.484375 C 7.882812 -1.796875 8.3125 -2.242188 8.625 -2.828125 C 8.9375 -3.421875 9.09375 -4.109375 9.09375 -4.890625 C 9.09375 -5.671875 8.9375 -6.351562 8.625 -6.9375 C 8.3125 -7.519531 7.882812 -7.96875 7.34375 -8.28125 C 6.800781 -8.601562 6.1875 -8.765625 5.5 -8.765625 C 4.8125 -8.765625 4.195312 -8.601562 3.65625 -8.28125 C 3.113281 -7.96875 2.6875 -7.519531 2.375 -6.9375 C 2.0625 -6.351562 1.90625 -5.671875 1.90625 -4.890625 C 1.90625 -4.109375 2.0625 -3.421875 2.375 -2.828125 C 2.6875 -2.242188 3.113281 -1.796875 3.65625 -1.484375 C 4.207031 -1.171875 4.820312 -1.015625 5.5 -1.015625 Z M 5.5 -1.015625 "/></g></g></g><g fill="#000000" fill-opacity="1"><g transform="translate(267.04622, 302.122891)"><g><path d="M 2.359375 -1.03125 L 5.765625 -1.03125 L 5.765625 0 L 1.078125 0 L 1.078125 -9.765625 L 2.359375 -9.765625 Z M 2.359375 -1.03125 "/></g></g></g><g fill="#000000" fill-opacity="1"><g transform="translate(274.070855, 302.122891)"><g><path d="M 2.328125 -9.765625 L 2.328125 -3.578125 C 2.328125 -2.710938 2.535156 -2.066406 2.953125 -1.640625 C 3.378906 -1.222656 3.972656 -1.015625 4.734375 -1.015625 C 5.484375 -1.015625 6.066406 -1.222656 6.484375 -1.640625 C 6.910156 -2.066406 7.125 -2.710938 7.125 -3.578125 L 7.125 -9.765625 L 8.40625 -9.765625 L 8.40625 -3.59375 C 8.40625 -2.78125 8.238281 -2.097656 7.90625 -1.546875 C 7.582031 -0.992188 7.140625 -0.582031 6.578125 -0.3125 C 6.023438 -0.0390625 5.40625 0.09375 4.71875 0.09375 C 4.03125 0.09375 3.40625 -0.0390625 2.84375 -0.3125 C 2.289062 -0.582031 1.851562 -0.992188 1.53125 -1.546875 C 1.207031 -2.097656 1.046875 -2.78125 1.046875 -3.59375 L 1.046875 -9.765625 Z M 2.328125 -9.765625 "/></g></g></g><g fill="#000000" fill-opacity="1"><g transform="translate(284.495575, 302.122891)"><g><path d="M 7.078125 -9.765625 L 7.078125 -8.71875 L 4.421875 -8.71875 L 4.421875 0 L 3.15625 0 L 3.15625 -8.71875 L 0.46875 -8.71875 L 0.46875 -9.765625 Z M 7.078125 -9.765625 "/></g></g></g><g fill="#000000" fill-opacity="1"><g transform="translate(293.045341, 302.122891)"><g><path d="M 2.359375 -9.765625 L 2.359375 0 L 1.078125 0 L 1.078125 -9.765625 Z M 2.359375 -9.765625 "/></g></g></g><g fill="#000000" fill-opacity="1"><g transform="translate(297.467406, 302.122891)"><g><path d="M 5.5 0.09375 C 4.59375 0.09375 3.765625 -0.113281 3.015625 -0.53125 C 2.273438 -0.957031 1.6875 -1.550781 1.25 -2.3125 C 0.820312 -3.070312 0.609375 -3.929688 0.609375 -4.890625 C 0.609375 -5.835938 0.820312 -6.691406 1.25 -7.453125 C 1.6875 -8.210938 2.273438 -8.804688 3.015625 -9.234375 C 3.765625 -9.660156 4.59375 -9.875 5.5 -9.875 C 6.414062 -9.875 7.242188 -9.660156 7.984375 -9.234375 C 8.734375 -8.804688 9.320312 -8.210938 9.75 -7.453125 C 10.1875 -6.703125 10.40625 -5.847656 10.40625 -4.890625 C 10.40625 -3.921875 10.1875 -3.054688 9.75 -2.296875 C 9.320312 -1.546875 8.734375 -0.957031 7.984375 -0.53125 C 7.242188 -0.113281 6.414062 0.09375 5.5 0.09375 Z M 5.5 -1.015625 C 6.1875 -1.015625 6.800781 -1.171875 7.34375 -1.484375 C 7.882812 -1.796875 8.3125 -2.242188 8.625 -2.828125 C 8.9375 -3.421875 9.09375 -4.109375 9.09375 -4.890625 C 9.09375 -5.671875 8.9375 -6.351562 8.625 -6.9375 C 8.3125 -7.519531 7.882812 -7.96875 7.34375 -8.28125 C 6.800781 -8.601562 6.1875 -8.765625 5.5 -8.765625 C 4.8125 -8.765625 4.195312 -8.601562 3.65625 -8.28125 C 3.113281 -7.96875 2.6875 -7.519531 2.375 -6.9375 C 2.0625 -6.351562 1.90625 -5.671875 1.90625 -4.890625 C 1.90625 -4.109375 2.0625 -3.421875 2.375 -2.828125 C 2.6875 -2.242188 3.113281 -1.796875 3.65625 -1.484375 C 4.207031 -1.171875 4.820312 -1.015625 5.5 -1.015625 Z M 5.5 -1.015625 "/></g></g></g><g fill="#000000" fill-opacity="1"><g transform="translate(309.445249, 302.122891)"><g><path d="M 8.75 0 L 7.46875 0 L 2.359375 -7.765625 L 2.359375 0 L 1.078125 0 L 1.078125 -9.765625 L 2.359375 -9.765625 L 7.46875 -2.015625 L 7.46875 -9.765625 L 8.75 -9.765625 Z M 8.75 0 "/></g></g></g><g fill="#000000" fill-opacity="1"><g transform="translate(320.261747, 302.122891)"><g><path d="M 4.171875 0.09375 C 3.523438 0.09375 2.945312 -0.0195312 2.4375 -0.25 C 1.9375 -0.476562 1.539062 -0.796875 1.25 -1.203125 C 0.957031 -1.609375 0.804688 -2.078125 0.796875 -2.609375 L 2.15625 -2.609375 C 2.195312 -2.148438 2.382812 -1.765625 2.71875 -1.453125 C 3.050781 -1.140625 3.535156 -0.984375 4.171875 -0.984375 C 4.773438 -0.984375 5.25 -1.132812 5.59375 -1.4375 C 5.945312 -1.738281 6.125 -2.128906 6.125 -2.609375 C 6.125 -2.972656 6.019531 -3.269531 5.8125 -3.5 C 5.613281 -3.738281 5.359375 -3.921875 5.046875 -4.046875 C 4.742188 -4.171875 4.332031 -4.300781 3.8125 -4.4375 C 3.164062 -4.601562 2.648438 -4.769531 2.265625 -4.9375 C 1.878906 -5.101562 1.546875 -5.363281 1.265625 -5.71875 C 0.992188 -6.082031 0.859375 -6.570312 0.859375 -7.1875 C 0.859375 -7.71875 0.992188 -8.1875 1.265625 -8.59375 C 1.535156 -9.007812 1.914062 -9.328125 2.40625 -9.546875 C 2.894531 -9.773438 3.457031 -9.890625 4.09375 -9.890625 C 5 -9.890625 5.742188 -9.660156 6.328125 -9.203125 C 6.910156 -8.742188 7.242188 -8.132812 7.328125 -7.375 L 5.921875 -7.375 C 5.878906 -7.75 5.679688 -8.078125 5.328125 -8.359375 C 4.984375 -8.648438 4.53125 -8.796875 3.96875 -8.796875 C 3.425781 -8.796875 2.988281 -8.65625 2.65625 -8.375 C 2.320312 -8.101562 2.15625 -7.71875 2.15625 -7.21875 C 2.15625 -6.863281 2.253906 -6.570312 2.453125 -6.34375 C 2.660156 -6.125 2.910156 -5.957031 3.203125 -5.84375 C 3.492188 -5.726562 3.90625 -5.597656 4.4375 -5.453125 C 5.082031 -5.273438 5.597656 -5.097656 5.984375 -4.921875 C 6.378906 -4.742188 6.71875 -4.472656 7 -4.109375 C 7.28125 -3.753906 7.421875 -3.269531 7.421875 -2.65625 C 7.421875 -2.1875 7.289062 -1.738281 7.03125 -1.3125 C 6.78125 -0.894531 6.410156 -0.554688 5.921875 -0.296875 C 5.429688 -0.0351562 4.847656 0.09375 4.171875 0.09375 Z M 4.171875 0.09375 "/></g></g></g></svg>